<?xml version="1.0" encoding="UTF-8"?>
<svg id="Calque_1" xmlns="http://www.w3.org/2000/svg" viewBox="0 0 380 159">
  <defs>
    <style>
      .cls-1 {
        fill: #06596f;
      }

      .cls-2 {
        fill: #86c100;
      }

      .cls-3 {
        fill: #05576d;
      }
    </style>
  </defs>
  <path class="cls-3" d="M369.68,0c-.14.56-.13,1.23-.46,1.65-11.44,14.9-23.86,28.96-37.64,41.76-8.28,7.69-17.07,14.85-25.63,22.25-.39.33-.75.69-1.13,1.03,0,.13,0,.26,0,.39.18-.05.35-.09.53-.14,10.66-5.75,20.87-12.2,30.77-19.15,14.8-10.39,28.6-21.98,41.46-34.67.53-.52,1.63-.89,2.32-.73,1.07.25,1.03,1.56-.06,2.59-4.88,4.62-9.66,9.35-14.7,13.79-13.62,12.01-28.21,22.75-43.68,32.29-10.81,6.67-22.02,12.57-33.4,18.21-5.42,2.69-10.4,6.24-15.61,9.35-25.3,15.09-52.22,26.33-81,32.93-8.28,1.9-16.74,3.03-25.12,4.51.12-.33.25-.66.37-.99.34,0,.69.03,1.03-.03,9.14-1.73,18.37-3.11,27.4-5.29,25.97-6.26,50.34-16.53,73.44-29.85,3.22-1.86,6.38-3.83,9.57-5.75-.67-.13-1.17.08-1.67.27-6.8,2.65-13.55,5.45-20.42,7.92-20.21,7.25-40.92,12.61-62.19,15.7-8.67,1.26-17.4,2.08-26.1,3.1-.24-.96-.48-1.91-.72-2.87,5.1-.54,10.21-.94,15.28-1.64,7.59-1.04,15.2-2.05,22.73-3.49,19.84-3.79,39.27-9.13,58.02-16.64,10.45-4.18,20.79-8.71,30.87-13.71,4.87-2.41,9.15-6.08,13.47-9.47,13.32-10.47,25.73-21.94,37.3-34.29C353.41,19.78,361.73,10.19,369.34,0c.11,0,.23,0,.34,0ZM303.36,67.79c.38-.05.57-.07.75-.11.26-.05.52-.12.78-.18l-.45-.47c-.14.05-.29.08-.41.16-.18.13-.34.3-.67.6Z"/>
  <path class="cls-2" d="M167.04,108.29c.24.96.48,1.91.72,2.87.64,4.71.39,9.36-1.05,13.92-.12.33-.25.66-.37.99-2.32,4.97-5.51,9.21-10.2,12.24-13.17,8.52-30.74,3.96-38.1-9.9-.21-.4-.47-.77-.71-1.16-.13-.29-.27-.57-.4-.86-1.73-4.98-2.32-10.06-1.43-15.27.24-1.01.49-2.02.73-3.03,1.62-4.22,3.9-7.97,7.2-11.14,9.24-8.89,25.04-9.4,34.93-1.2,4.11,3.41,6.78,7.68,8.68,12.54Z"/>
  <path class="cls-1" d="M116.93,126.4c.13.29.27.57.4.86-5.43-.54-10.87-1.09-16.57-1.66.28,1.1.49,2.28.89,3.4,5.64,15.7,16.73,25.15,33.16,28.39,1.77.35,3.63.28,5.44.45.5.05.98.28,1.46.42l-.18.8c-3.23-.46-6.53-.6-9.66-1.42-16.51-4.29-27.16-14.64-31.76-31.02-.3-1.07-.81-1.41-1.96-1.6-20.68-3.39-40.56-9.41-59.69-17.93-13.14-5.86-25.71-12.73-37.79-20.49-.56-.36-1.01-.89-1.33-1.56,30.74,19.65,63.68,33.54,100.01,39.3-.19-2.46-.5-4.9-.53-7.35-.04-2.48.19-4.96.31-7.6-2.65-.43-5.32-.88-8.01-1.28-13.48-2.05-26.72-5.15-39.77-9-17.08-5.04-33.64-11.43-49.68-19.16-2.58-1.24-2.58-1.25-2.17-4.37,31.82,15.63,65.18,26.12,100.33,30.83,6.33-23.62,27-33.18,41.88-32.23-.46.15-.91.43-1.37.44-9.31.19-17.58,3.29-24.84,9-7.38,5.8-12.16,13.34-14.58,22.36-.04.15.03.33.08.69,5.07.48,10.15.96,15.24,1.44-.24,1.01-.49,2.02-.73,3.03-5.06-.52-10.13-1.05-15.27-1.58-.84,4.64-.68,9.25.04,13.85.08.49.78,1.2,1.26,1.26,5.12.65,10.26,1.18,15.4,1.75Z"/>
</svg>