<?xml version="1.0" encoding="UTF-8"?>
<svg id="Calque_1" xmlns="http://www.w3.org/2000/svg" viewBox="0 0 404 161">
  <defs>
    <style>
      .cls-1 {
        fill: #05586e;
      }

      .cls-2 {
        fill: #fe6531;
      }

      .cls-3 {
        fill: #05576d;
      }
    </style>
  </defs>
  <path class="cls-1" d="M271.91,54.22c9.94,4.55,19.88,9.11,29.81,13.66.23.13.46.26.68.38,13.25,7.15,25.97,15.12,37.98,24.18,4.94,3.73,9.72,7.67,14.57,11.52.26.21.55.38.83.57.4.33.79.67,1.19,1,.56.48,1.12.96,1.68,1.44.36.31.71.63,1.07.94.52.46,1.05.92,1.57,1.39.51.45,1.01.89,1.51,1.34.76.69,1.52,1.37,2.28,2.06.61.56,1.23,1.12,1.84,1.69,1.91,1.82,3.83,3.64,5.74,5.45,1.28,1.27,2.56,2.54,3.83,3.81,1.95,2.01,3.89,4.03,5.84,6.04.57.6,1.14,1.19,1.71,1.79.8.88,1.6,1.76,2.4,2.64.34.37.68.74,1.03,1.11.57.65,1.15,1.3,1.72,1.95.34.38.68.77,1.01,1.15.35.41.71.82,1.06,1.22.35.39.69.77,1.04,1.16,2.9,3.56,5.79,7.11,8.68,10.67.25.31.45.67.74.93,2.6,2.36,3.46,5.29,2.93,8.69h-.34c-1.49-2.09-2.91-4.24-4.5-6.26-10.22-13.05-21.35-25.28-33.45-36.62-31.65-29.66-67.68-52.24-109.14-65.86-6.87-2.26-13.93-3.93-20.91-5.85-.6-.16-1.24-.17-2-.26-2.54,17.77-11.98,30.22-29.11,36.52-5.47,2.01-11.98,2.66-14.01,1.51,14.98-.61,26.78-6.57,35.16-18.67,4.03-5.82,6.26-12.31,6.94-19.59-5.14-.57-10.16-1.13-15.18-1.69-.02-1.45-.05-2.9-.07-4.35.14-.04.29-.08.43-.12,4.9.92,9.79,1.83,15,2.81-.2-10.56-3.46-19.78-10.53-27.61-1.26-1.25-2.52-2.5-3.78-3.76-5.35-4.89-11.67-7.96-18.73-9.47-2.55-.54-5.19-.67-7.78-1.04-.42-.06-.81-.39-1.21-.59,5.46-.5,10.67.68,15.63,2.71,14.94,6.12,23.78,17.25,26.78,32.99.21,1.11.31,2.24.38,3.37.06,1.13.01,2.26.01,3.59,2.91.72,5.8,1.41,8.68,2.16,16.65,4.31,33.44,8.16,49.92,13.04,35.34,10.45,68.21,26.12,98.18,47.57,4.39,3.14,8.59,6.54,12.83,9.88.42.33.5,1.09.73,1.65-16.17-13.26-33.67-24.52-52.23-34.17-.25-.13-.52-.24-.78-.36-.69-.35-1.37-.7-2.06-1.05-1.83-.91-3.65-1.82-5.48-2.73-.23-.11-.46-.22-.69-.33-14.76-7.19-30.03-13.1-45.66-18.15-.21-.07-.45-.06-.68-.09-.23-.08-.47-.16-.7-.24-7.93-2.2-15.86-4.4-23.79-6.6-1.94-.48-3.88-.97-5.82-1.45-.04.14-.07.28-.11.43,1.77.64,3.55,1.27,5.32,1.91Z"/>
  <path class="cls-3" d="M57.8,60.17c-6.09,1.55-12.21,2.97-18.25,4.67-11.32,3.19-22.6,6.54-33.9,9.82-.25.07-.5.13-.75.2-.08-.16-.16-.32-.25-.49.47-.25.92-.59,1.42-.74,9.44-2.78,18.83-5.76,28.35-8.25,15-3.93,30.08-7.53,45.13-11.28.82-.2,1.62-.49,2.42-.73.23-.08.47-.17.7-.25,5-1.41,9.99-2.85,15-4.23,12.94-3.58,26.01-6.55,39.31-8.43,7.36-1.04,14.76-1.84,22.15-2.75.23,0,.46,0,.69,0,1.37-.11,2.74-.22,4.11-.33.45.02.9.04,1.35.06-.12,1-.24,2-.36,3-14.38.7-28.57,2.81-42.65,5.76.34.14.68.17,1.01.13,5.31-.6,10.6-1.32,15.92-1.8,8.56-.76,17.13-1.35,25.7-2.01,0,.26,0,.51,0,.77-8.46.66-16.97,1.03-25.38,2.06-12.22,1.5-24.49,2.96-36.54,5.41-13.74,2.79-26.96,7.61-40.15,12.38-20.56,7.44-40.57,16.15-60.29,25.53-1.4.67-2.56.99-3.55-.51,0-.23,0-.45,0-.68.48-.39.95-.78,1.43-1.18.55-.3,1.09-.59,1.64-.89,4.99-2.26,9.91-4.66,14.97-6.76,14.92-6.19,29.89-12.26,44.84-18.38.2-.08.39-.19.59-.28,1.88-.64,3.76-1.28,5.64-1.92.24-.12.48-.25.72-.37-.03-.07-.06-.13-.09-.2-.31.08-.62.16-.93.24-1.95.48-3.89.95-5.84,1.43-.65.15-1.29.3-1.94.45-.74.19-1.49.38-2.23.56Z"/>
  <path class="cls-2" d="M164.93,40.42c.12-1,.24-2,.36-3,.08-.23.17-.45.25-.68,2.92-10.98,9.89-17.82,21.11-20.25,4.93-1.06,9.74-.41,14.44,1.3.53.19,1.06.38,1.59.57.23.11.46.22.69.34,1.89,1.26,3.79,2.53,5.68,3.79.42.38.83.76,1.25,1.14,0,0,.1.1.1.1.38.41.77.83,1.15,1.24,3.3,4.06,5.51,8.62,6.29,13.81.06.36.12.72.19,1.08.02,1.45.05,2.9.07,4.35-.56,3.82-1.45,7.53-3.37,10.95-5.48,9.78-16.46,15.03-27.78,13.21-10.69-1.71-19.63-10.49-21.58-21.23-.23-1.28-.31-2.59-.46-3.88,0-.26,0-.51,0-.77,0-.69.02-1.39.03-2.08Z"/>
</svg>