<?xml version="1.0" encoding="UTF-8"?>
<svg id="Calque_1" xmlns="http://www.w3.org/2000/svg" viewBox="0 0 898 167">
  <defs>
    <style>
      .cls-1 {
        fill: #05576d;
      }
    </style>
  </defs>
  <path class="cls-1" d="M179.95,166.46c-23.33-.81-46.15-4.47-68.21-12.29-21.07-7.47-40.28-18.29-57.83-32.08C31.87,104.78,13.91,83.97.11,59.61c-.47-.83-.66-1.89-.75-2.86-.12-1.35-.03-2.73-.03-4.2.18.11.35.15.4.25,4.26,8.9,10.85,16.04,17.62,23.01,17.62,18.11,38.28,31.9,61.17,42.44,17.91,8.25,36.64,13.91,56.04,17.39,20.18,3.62,40.54,5.08,61.02,4.39,10.63-.36,21.26-1.18,31.84-2.3,40.93-4.35,80.29-15.26,119-28.8,28.75-10.06,56.92-21.61,85.15-33.03,15.18-6.14,30.47-12.04,45.56-18.38,8.7-3.66,17.09-8.03,25.65-12.01,27.61-12.83,55.79-24.22,85.16-32.46,14.29-4.01,28.75-7.29,43.46-9.44,10.7-1.56,21.44-2.67,32.25-3.04.23,0,.46-.2.69-.31.91,0,1.82,0,2.74,0h11.97c.8,0,1.6,0,2.39,0,2.17.21,4.33.49,6.5.61,9.6.51,19.11,1.74,28.58,3.43,14.74,2.63,29.1,6.61,43.13,11.79,26.34,9.73,50.53,23.36,73.09,39.99,5.78,4.26,12.09,7.81,18.04,11.86,16.99,11.56,32.54,24.83,46.79,39.61.5.51.86,1.15,1.09,1.89-16.18-16.72-33.91-31.49-53.34-44.21-.13.14-.25.27-.38.41.35.35.69.72,1.06,1.04,10.14,8.57,19.98,17.49,28.78,27.42,7.98,9.01,15.62,18.34,23.19,27.7.99,1.22.66,3.49.94,5.28-.16.04-.31.08-.47.12-2.4-3.12-4.78-6.27-7.21-9.37-11.99-15.3-25.24-29.44-39.78-42.37-11.01-9.79-22.4-19.16-35.01-26.8-7.02-4.25-14.73-7.43-22.3-10.68-19.22-8.24-39.11-14.47-59.65-18.44-10.52-2.03-21.15-3.64-31.81-4.78-15.94-1.7-31.95-2.01-47.96-.85-8.34.6-16.72.99-24.98,2.2-13.46,1.96-26.92,4.07-40.22,6.88-28.54,6.02-56.39,14.54-83.66,24.8-8.91,3.35-17.43,7.79-25.94,12.11-28.89,14.69-57.66,29.62-86.54,44.34-24.56,12.52-49.47,24.32-75.16,34.4-20.66,8.1-41.71,14.96-63.37,19.87-11.34,2.57-22.74,4.86-34.34,5.91-9.29.84-18.61,1.39-27.91,2.07-4.23,0-8.46,0-12.68,0ZM843.77,64.16c-.17-.03-.35-.06-.52-.09.09.13.18.26.27.4.17.16.33.31.5.47.3.21.6.42.9.63.08-.11.16-.22.24-.33-.27-.2-.53-.4-.8-.59-.2-.16-.4-.32-.6-.48ZM467.09,62.82c.17-.09.34-.18.51-.27-.02-.06-.04-.13-.06-.19-.25.05-.5.09-.74.14-.22.09-.45.19-.67.28-14.46,5.83-28.93,11.63-43.38,17.49-29.1,11.82-58.25,23.52-88.07,33.47-35.85,11.96-72.31,21.31-110.04,25.06-9,.9-18.04,1.67-27.07,1.94-15.44.47-30.89.23-46.21-1.97-10.2-1.47-20.42-3.01-30.47-5.27-20.76-4.67-40.4-12.42-58.96-22.84-14.42-8.1-27.82-17.61-39.75-29.08-4.3-4.13-8.34-8.54-12.5-12.82-.22-.06-.43-.12-.65-.17.11.15.22.31.33.46.14.25.27.5.42.73,10.79,16.37,23.58,31.01,38.46,43.8,16.41,14.11,34.52,25.53,54.54,33.88,14.52,6.06,29.56,10.26,45.08,12.86,9.6,1.61,19.26,2.66,28.97,3,17.39.61,34.69-.38,51.91-2.99,12.66-1.92,25.17-4.5,37.55-7.74,27.26-7.13,53.46-17.17,79.13-28.66,26.03-11.65,51.38-24.68,76.68-37.81,14.76-7.66,29.54-15.28,44.31-22.92.23-.12.45-.24.68-.36ZM806.04,42.29c.06-.09.13-.18.19-.27-.17-.14-.32-.31-.51-.42-28.83-17.22-59.59-29.33-92.84-34.89-12.09-2.02-24.24-3.15-36.48-3.3-13.57-.17-27.1.56-40.5,2.7-10.29,1.64-20.57,3.43-30.74,5.68-18.3,4.06-36.13,9.74-53.61,16.48-11.92,4.59-23.73,9.47-35.59,14.23.06.16.12.33.17.49.53-.12,1.08-.2,1.6-.37,3.33-1.1,6.64-2.24,9.97-3.33,32.7-10.75,65.88-19.54,100.14-23.68,9.54-1.15,19.12-2.09,28.7-2.63,16.11-.9,32.24-.67,48.28,1.28,8.95,1.09,17.92,2.21,26.78,3.9,22.4,4.26,44.08,10.98,65.02,20,3.15,1.36,6.27,2.77,9.41,4.16Z"/>
</svg>